<?xml version="1.0" standalone="no"?>
<!DOCTYPE svg PUBLIC "-//W3C//DTD SVG 20010904//EN"
 "http://www.w3.org/TR/2001/REC-SVG-20010904/DTD/svg10.dtd">
<svg version="1.0" xmlns="http://www.w3.org/2000/svg"
 width="1024.000000pt" height="1024.000000pt" viewBox="0 0 1024.000000 1024.000000"
 preserveAspectRatio="xMidYMid meet">

<g transform="translate(0.000000,1024.000000) scale(0.100000,-0.100000)"
fill="#000000" stroke="none">
<path d="M4887 7525 c-161 -31 -320 -100 -444 -194 -43 -33 -267 -249 -497
-479 l-419 -420 -45 24 c-84 44 -125 29 -238 -87 -88 -91 -110 -136 -99 -197
5 -32 43 -74 265 -294 276 -274 297 -289 372 -272 39 8 199 160 223 211 22 47
15 103 -19 148 l-27 35 61 44 c82 61 135 80 207 74 32 -3 65 -8 73 -12 11 -4
80 59 234 213 l218 218 -11 52 c-15 71 -14 235 3 297 25 95 73 169 170 262
144 137 249 181 436 182 168 2 226 21 213 70 -8 29 -32 46 -109 73 -164 59
-411 81 -567 52z"/>
</g>
</svg>
