<?xml version="1.0" standalone="no"?>
<!DOCTYPE svg PUBLIC "-//W3C//DTD SVG 20010904//EN"
 "http://www.w3.org/TR/2001/REC-SVG-20010904/DTD/svg10.dtd">
<svg version="1.0" xmlns="http://www.w3.org/2000/svg"
 width="1024.000000pt" height="1024.000000pt" viewBox="0 0 1024.000000 1024.000000"
 preserveAspectRatio="xMidYMid meet">

<g transform="translate(0.000000,1024.000000) scale(0.100000,-0.100000)"
fill="#000000" stroke="none">
<path d="M4800 9643 c-247 -24 -404 -53 -595 -112 -300 -93 -591 -248 -849
-453 -86 -69 -1282 -1246 -2219 -2184 -4 -4 -27 7 -52 25 -98 70 -208 100
-303 81 -101 -21 -145 -53 -344 -255 -163 -164 -194 -200 -226 -264 -34 -69
-37 -82 -37 -161 0 -157 -24 -127 672 -828 571 -574 612 -612 678 -644 60 -29
82 -33 162 -36 87 -4 97 -2 160 28 58 27 93 56 254 218 167 168 190 195 225
266 37 75 39 86 39 170 0 106 -17 150 -93 243 l-46 56 40 34 c144 126 316 227
439 258 98 25 228 21 315 -11 l73 -26 557 557 557 557 -18 62 c-36 132 -52
295 -46 484 5 185 17 257 63 397 66 200 165 346 361 536 254 244 456 370 694
434 125 33 239 45 554 54 292 9 333 17 387 68 34 33 37 85 9 141 -27 54 -44
65 -171 114 -329 128 -712 200 -1055 196 -82 -1 -166 -3 -185 -5z"/>
</g>
</svg>
