<?xml version="1.0" standalone="no"?>
<!DOCTYPE svg PUBLIC "-//W3C//DTD SVG 20010904//EN"
 "http://www.w3.org/TR/2001/REC-SVG-20010904/DTD/svg10.dtd">
<svg version="1.0" xmlns="http://www.w3.org/2000/svg"
 width="192.000000pt" height="192.000000pt" viewBox="0 0 192.000000 192.000000"
 preserveAspectRatio="xMidYMid meet">

<g transform="translate(0.000000,192.000000) scale(0.100000,-0.100000)"
fill="#000000" stroke="none">
<path d="M392 1797 l-50 -30 -162 -393 c-135 -326 -162 -399 -157 -428 4 -27
290 -696 331 -773 6 -12 32 -36 57 -51 l45 -29 515 5 514 5 41 28 c39 27 47
43 202 402 140 323 162 382 162 426 0 46 -20 97 -167 419 -92 202 -171 373
-177 381 -6 7 -27 24 -46 36 -35 22 -40 22 -547 27 l-512 6 -49 -31z m753
-110 c276 -78 476 -282 546 -558 18 -70 18 -268 0 -338 -71 -280 -282 -491
-562 -562 -70 -18 -268 -18 -338 0 -281 71 -491 281 -562 561 -18 72 -18 268
0 340 47 186 159 346 314 452 69 47 174 92 249 107 29 6 62 13 73 15 37 9 230
-3 280 -17z"/>
<path d="M542 1394 c-13 -9 -15 -44 -16 -199 -1 -200 4 -225 47 -225 55 1 67
37 60 178 -6 109 -6 110 20 136 23 23 34 26 96 26 81 0 114 -12 130 -47 16
-34 15 -703 -1 -738 -13 -29 -28 -34 -113 -37 l-60 -3 -3 -38 c-4 -51 23 -61
125 -47 95 13 176 13 262 0 86 -14 121 -3 121 38 0 42 -17 52 -86 52 -67 0
-89 12 -99 53 -4 12 -5 179 -3 371 l3 348 28 24 c24 21 38 24 103 24 70 0 78
-2 105 -30 l30 -30 -3 -124 c-2 -88 1 -128 9 -137 15 -15 70 -16 85 -1 15 15
17 379 2 400 -9 12 -70 15 -419 16 -284 1 -413 -2 -423 -10z"/>
</g>
</svg>
